<mxfile host="app.diagrams.net" modified="2023-05-27T11:12:00.902Z" agent="Mozilla/5.0 (Windows NT 10.0; Win64; x64) AppleWebKit/537.36 (KHTML, like Gecko) Chrome/113.0.0.0 Safari/537.36" etag="Z5XioQPrO3vyqnkw1TI2" version="21.3.4" type="github">
  <diagram name="Page-1" id="MVIAGM2ALHg8n7R6wdon">
    <mxGraphModel dx="1050" dy="587" grid="0" gridSize="10" guides="1" tooltips="1" connect="1" arrows="1" fold="1" page="1" pageScale="1" pageWidth="827" pageHeight="1169" background="#ffffff" math="0" shadow="0">
      <root>
        <mxCell id="0" />
        <mxCell id="1" parent="0" />
        <mxCell id="2IiBHPQix0FwZNGGVn6R-6" value="MOA jouant le rôle du client web" style="shape=umlActor;verticalLabelPosition=bottom;verticalAlign=top;html=1;outlineConnect=0;fontFamily=Verdana;" vertex="1" parent="1">
          <mxGeometry x="110" y="30" width="30" height="60" as="geometry" />
        </mxCell>
        <mxCell id="2IiBHPQix0FwZNGGVn6R-7" value="&lt;div style=&quot;&quot;&gt;&lt;span style=&quot;&quot;&gt;Application vente &amp;amp; stock&lt;/span&gt;&lt;/div&gt;" style="rounded=1;whiteSpace=wrap;html=1;align=center;labelBackgroundColor=none;fontFamily=Verdana;verticalAlign=top;labelBorderColor=none;" vertex="1" parent="1">
          <mxGeometry x="330" y="30" width="170" height="60" as="geometry" />
        </mxCell>
        <mxCell id="2IiBHPQix0FwZNGGVn6R-8" value="" style="endArrow=none;dashed=1;html=1;rounded=0;entryX=0.5;entryY=1;entryDx=0;entryDy=0;fontFamily=Verdana;" edge="1" parent="1" target="2IiBHPQix0FwZNGGVn6R-7">
          <mxGeometry width="50" height="50" relative="1" as="geometry">
            <mxPoint x="415" y="550" as="sourcePoint" />
            <mxPoint x="480" y="280" as="targetPoint" />
          </mxGeometry>
        </mxCell>
        <mxCell id="2IiBHPQix0FwZNGGVn6R-9" value="" style="endArrow=none;dashed=1;html=1;rounded=0;fontFamily=Verdana;" edge="1" parent="1">
          <mxGeometry width="50" height="50" relative="1" as="geometry">
            <mxPoint x="125" y="550" as="sourcePoint" />
            <mxPoint x="125" y="120" as="targetPoint" />
          </mxGeometry>
        </mxCell>
        <mxCell id="2IiBHPQix0FwZNGGVn6R-10" value="" style="endArrow=classic;html=1;rounded=0;fontFamily=Verdana;" edge="1" parent="1">
          <mxGeometry width="50" height="50" relative="1" as="geometry">
            <mxPoint x="140" y="160" as="sourcePoint" />
            <mxPoint x="400" y="160" as="targetPoint" />
          </mxGeometry>
        </mxCell>
        <mxCell id="2IiBHPQix0FwZNGGVn6R-12" value="" style="endArrow=classic;html=1;rounded=0;fontFamily=Verdana;" edge="1" parent="1">
          <mxGeometry width="50" height="50" relative="1" as="geometry">
            <mxPoint x="400" y="195" as="sourcePoint" />
            <mxPoint x="140" y="195" as="targetPoint" />
          </mxGeometry>
        </mxCell>
        <mxCell id="2IiBHPQix0FwZNGGVn6R-13" value="connexion au site" style="text;html=1;strokeColor=none;fillColor=none;align=center;verticalAlign=middle;whiteSpace=wrap;rounded=0;spacingBottom=5;fontFamily=Verdana;fontSize=11;" vertex="1" parent="1">
          <mxGeometry x="190" y="138" width="140" height="30" as="geometry" />
        </mxCell>
        <mxCell id="2IiBHPQix0FwZNGGVn6R-14" value="affiche ecrain acceuil" style="text;html=1;strokeColor=none;fillColor=none;align=center;verticalAlign=middle;whiteSpace=wrap;rounded=0;spacingTop=0;spacingBottom=4;fontFamily=Verdana;fontSize=11;" vertex="1" parent="1">
          <mxGeometry x="176.25" y="178" width="167.5" height="20" as="geometry" />
        </mxCell>
        <mxCell id="2IiBHPQix0FwZNGGVn6R-15" value="BDD" style="shape=cylinder3;whiteSpace=wrap;html=1;boundedLbl=1;backgroundOutline=1;size=15;fontFamily=Verdana;" vertex="1" parent="1">
          <mxGeometry x="590" y="20" width="60" height="80" as="geometry" />
        </mxCell>
        <mxCell id="2IiBHPQix0FwZNGGVn6R-19" value="" style="endArrow=classic;html=1;rounded=0;" edge="1" parent="1">
          <mxGeometry width="50" height="50" relative="1" as="geometry">
            <mxPoint x="140" y="260" as="sourcePoint" />
            <mxPoint x="400" y="260" as="targetPoint" />
          </mxGeometry>
        </mxCell>
        <mxCell id="2IiBHPQix0FwZNGGVn6R-21" value="" style="endArrow=none;dashed=1;html=1;rounded=0;fontFamily=Verdana;" edge="1" parent="1" target="2IiBHPQix0FwZNGGVn6R-15">
          <mxGeometry width="50" height="50" relative="1" as="geometry">
            <mxPoint x="620" y="550" as="sourcePoint" />
            <mxPoint x="660" y="100" as="targetPoint" />
          </mxGeometry>
        </mxCell>
        <mxCell id="2IiBHPQix0FwZNGGVn6R-22" value="saisie pseudo/mdp et demande d&#39;identification" style="text;html=1;strokeColor=none;fillColor=none;align=center;verticalAlign=middle;whiteSpace=wrap;rounded=0;spacingTop=0;spacingBottom=4;fontFamily=Verdana;fontSize=11;" vertex="1" parent="1">
          <mxGeometry x="140" y="245" width="313.75" height="16" as="geometry" />
        </mxCell>
        <mxCell id="2IiBHPQix0FwZNGGVn6R-23" value="" style="endArrow=classic;html=1;rounded=0;fontFamily=Verdana;" edge="1" parent="1">
          <mxGeometry width="50" height="50" relative="1" as="geometry">
            <mxPoint x="430" y="280" as="sourcePoint" />
            <mxPoint x="614" y="280" as="targetPoint" />
            <Array as="points">
              <mxPoint x="530" y="279" />
            </Array>
          </mxGeometry>
        </mxCell>
        <mxCell id="2IiBHPQix0FwZNGGVn6R-24" value="recuperé les donnés pour verifier le client" style="text;html=1;strokeColor=none;fillColor=none;align=center;verticalAlign=middle;whiteSpace=wrap;rounded=0;fontSize=11;" vertex="1" parent="1">
          <mxGeometry x="419" y="261" width="236" height="21" as="geometry" />
        </mxCell>
        <mxCell id="2IiBHPQix0FwZNGGVn6R-26" value="" style="endArrow=classic;html=1;rounded=0;fontFamily=Verdana;" edge="1" parent="1">
          <mxGeometry width="50" height="50" relative="1" as="geometry">
            <mxPoint x="400" y="367" as="sourcePoint" />
            <mxPoint x="140" y="367" as="targetPoint" />
          </mxGeometry>
        </mxCell>
        <mxCell id="2IiBHPQix0FwZNGGVn6R-27" value="Affichage&amp;nbsp; écran perso avec messgae de bienvenue contenant le nom et prenom du client ainsi que le tableau des produits" style="text;html=1;strokeColor=none;fillColor=none;align=center;verticalAlign=middle;whiteSpace=wrap;rounded=0;fontSize=10;" vertex="1" parent="1">
          <mxGeometry x="140" y="349" width="560" height="13" as="geometry" />
        </mxCell>
        <mxCell id="2IiBHPQix0FwZNGGVn6R-28" value="" style="endArrow=classic;html=1;rounded=0;" edge="1" parent="1">
          <mxGeometry width="50" height="50" relative="1" as="geometry">
            <mxPoint x="610" y="320" as="sourcePoint" />
            <mxPoint x="429" y="319" as="targetPoint" />
          </mxGeometry>
        </mxCell>
        <mxCell id="2IiBHPQix0FwZNGGVn6R-29" value="renvoie le donné du client et des produits&amp;nbsp;" style="text;html=1;strokeColor=none;fillColor=none;align=center;verticalAlign=middle;whiteSpace=wrap;rounded=0;fontSize=11;" vertex="1" parent="1">
          <mxGeometry x="420" y="304" width="236" height="11" as="geometry" />
        </mxCell>
        <mxCell id="2IiBHPQix0FwZNGGVn6R-30" value="" style="endArrow=classic;html=1;rounded=0;fontFamily=Verdana;" edge="1" parent="1">
          <mxGeometry width="50" height="50" relative="1" as="geometry">
            <mxPoint x="140" y="415" as="sourcePoint" />
            <mxPoint x="384" y="415" as="targetPoint" />
          </mxGeometry>
        </mxCell>
        <mxCell id="2IiBHPQix0FwZNGGVn6R-32" value="Ajout du produit du tableau" style="text;html=1;strokeColor=none;fillColor=none;align=center;verticalAlign=middle;whiteSpace=wrap;rounded=0;fontSize=11;" vertex="1" parent="1">
          <mxGeometry x="140" y="402" width="236" height="11" as="geometry" />
        </mxCell>
        <mxCell id="2IiBHPQix0FwZNGGVn6R-33" value="" style="endArrow=classic;html=1;rounded=0;" edge="1" parent="1">
          <mxGeometry width="50" height="50" relative="1" as="geometry">
            <mxPoint x="430" y="439" as="sourcePoint" />
            <mxPoint x="610" y="439" as="targetPoint" />
          </mxGeometry>
        </mxCell>
        <mxCell id="2IiBHPQix0FwZNGGVn6R-34" value="" style="endArrow=classic;html=1;rounded=0;" edge="1" parent="1">
          <mxGeometry width="50" height="50" relative="1" as="geometry">
            <mxPoint x="609" y="474" as="sourcePoint" />
            <mxPoint x="428" y="473" as="targetPoint" />
          </mxGeometry>
        </mxCell>
        <mxCell id="2IiBHPQix0FwZNGGVn6R-35" value="inséré le produit ajouter" style="text;html=1;strokeColor=none;fillColor=none;align=center;verticalAlign=middle;whiteSpace=wrap;rounded=0;fontSize=11;" vertex="1" parent="1">
          <mxGeometry x="440" y="416" width="140" height="30" as="geometry" />
        </mxCell>
        <mxCell id="2IiBHPQix0FwZNGGVn6R-36" value="renvoie les produits avec les nouveles stock" style="text;html=1;strokeColor=none;fillColor=none;align=center;verticalAlign=middle;whiteSpace=wrap;rounded=0;fontSize=11;" vertex="1" parent="1">
          <mxGeometry x="430" y="460" width="236" height="11" as="geometry" />
        </mxCell>
        <mxCell id="2IiBHPQix0FwZNGGVn6R-37" value="" style="endArrow=classic;html=1;rounded=0;fontFamily=Verdana;" edge="1" parent="1">
          <mxGeometry width="50" height="50" relative="1" as="geometry">
            <mxPoint x="400" y="507" as="sourcePoint" />
            <mxPoint x="140" y="507" as="targetPoint" />
          </mxGeometry>
        </mxCell>
        <mxCell id="2IiBHPQix0FwZNGGVn6R-38" value="affiche écran panier" style="text;html=1;strokeColor=none;fillColor=none;align=center;verticalAlign=middle;whiteSpace=wrap;rounded=0;spacingTop=0;spacingBottom=4;fontFamily=Verdana;fontSize=11;" vertex="1" parent="1">
          <mxGeometry x="176.25" y="491" width="167.5" height="20" as="geometry" />
        </mxCell>
      </root>
    </mxGraphModel>
  </diagram>
</mxfile>
